<?xml version="1.0" standalone="yes"?>
<svg xmlns="http://www.w3.org/2000/svg" width="404" height="138" style="background-color:green">
<path style="fill:#fdfdfd; stroke:none;" d="M0 0L0 138L404 138L404 0L0 0z"/>
<path style="fill:#9e9fa0; stroke:none;" d="M19 7L19 10L21 10L21 7L19 7z"/>
<path style="fill:#626264; stroke:none;" d="M34 7L34 10L35 10L34 7z"/>
<path style="fill:#252629; stroke:none;" d="M35 7L34 11L45 13L46 75C50.2313 70.8082 48.0004 63.6161 48 58C47.999 42.9446 47 28.0495 47 13L59 13C56.1472 8.59959 49.7447 10 45 10L45 7L35 7z"/>
<path style="fill:#626264; stroke:none;" d="M45 7L45 10L46 10L45 7z"/>
<path style="fill:#9e9fa0; stroke:none;" d="M46 7L46 10L48 10L48 7L46 7M79 7L79 10L82 10L82 7L79 7z"/>
<path style="fill:#252629; stroke:none;" d="M82 7L75 56C81.3541 51.4182 80.8427 30.623 81 23L83 23L84 52L86 52L84.0394 24L82 7z"/>
<path style="fill:#626264; stroke:none;" d="M83 7L83 10L84 10L83 7z"/>
<path style="fill:#9e9fa0; stroke:none;" d="M104 7L103 11L107 7L104 7M207 7L206 11L207 11L207 7z"/>
<path style="fill:#626264; stroke:none;" d="M208 7L208 10L209 10L208 7z"/>
<path style="fill:#252629; stroke:none;" d="M209 7C203.165 19.7687 203 33.0278 203 47C210.95 40.9479 202.765 24.4749 208.14 16.1481C212.062 10.0719 217.21 15.5901 219.12 20.0008C223.006 28.9791 222 39.4633 222 49L225 49C224.993 39.0974 225.361 21.4232 218.856 13.3032C216.392 10.2276 211.891 9.80138 209 7z"/>
<path style="fill:#626264; stroke:none;" d="M210 7L210 10L211 10L210 7z"/>
<path style="fill:#9e9fa0; stroke:none;" d="M211 7L211 10L212 10L211 7M241 7L241 10L243 10L243 7L241 7z"/>
<path style="fill:#626264; stroke:none;" d="M287 7L287 10L288 10L287 7z"/>
<path style="fill:#252629; stroke:none;" d="M288 7L287 11L298 13L299 56L301 56L300 13L312 13C309.147 8.59959 302.745 10 298 10L298 7L288 7z"/>
<path style="fill:#626264; stroke:none;" d="M298 7L298 10L299 10L298 7z"/>
<path style="fill:#9e9fa0; stroke:none;" d="M299 7L299 10L301 10L301 7L299 7z"/>
<path style="fill:#626264; stroke:none;" d="M375 7L375 10L376 10L375 7z"/>
<path style="fill:#252629; stroke:none;" d="M376 7C369.393 24.3148 370 42.616 370 61L372 61C372 48.9347 371.965 36.0052 373.171 24C373.555 20.1735 374.327 14.1356 379.04 13.4267C384.844 12.5539 387.051 19.6814 388.1 24C390.91 35.5662 390 50.087 390 62L392 62C392 42.6543 395.545 16.5399 376 7z"/>
<path style="fill:#9e9fa0; stroke:none;" d="M378 7L378 10L379 10L378 7M17 10L18 11L17 10z"/>
<path style="fill:#252629; stroke:none;" d="M25 94L26 94C30.7974 75.0118 15.1984 53.2311 14.2091 34C13.8469 26.9583 14.9037 13.708 24 14C16.4602 1.74423 13.0609 26.2058 13.0039 31C12.7436 52.8817 24.9402 72.3106 25 94z"/>
<path style="fill:#626264; stroke:none;" d="M22 10L23 11L22 10z"/>
<path style="fill:#9e9fa0; stroke:none;" d="M33 10L34 11L33 10z"/>
<path style="fill:#626264; stroke:none;" d="M58 10L59 11L58 10M79 10L80 11L79 10z"/>
<path style="fill:#9e9fa0; stroke:none;" d="M84 10L84 23L85 23L84 10z"/>
<path style="fill:#252629; stroke:none;" d="M104 10L103.985 35L106 46L106 13C118.331 16.2986 114.001 35.3174 114 45L116 45C116 33.595 120.404 10.3976 104 10z"/>
<path style="fill:#9e9fa0; stroke:none;" d="M110 10L111 11L110 10M133 10L134 11L133 10z"/>
<path style="fill:#252629; stroke:none;" d="M134 10L134 43L135 43L135 14L145 18L146 14L134 10z"/>
<path style="fill:#626264; stroke:none;" d="M136 10L137 11L136 10z"/>
<path style="fill:#9e9fa0; stroke:none;" d="M137 10L138 11L137 10z"/>
<path style="fill:#626264; stroke:none;" d="M178 10L179 11L178 10z"/>
<path style="fill:#252629; stroke:none;" d="M178 45L180 45L180 14C193.949 15.0769 189.19 36.7839 189 46L192 46C192 36.62 193.12 26.0073 189.74 17.0401C188.503 13.7574 183.622 8.03426 179.603 11.0432C177.23 12.8192 178.001 17.4473 178 20L178 45z"/>
<path style="fill:#626264; stroke:none;" d="M184 10L185 11L184 10M214 10L215 11L214 10z"/>
<path style="fill:#9e9fa0; stroke:none;" d="M215 10L216 11L215 10z"/>
<path style="fill:#626264; stroke:none;" d="M240 10L241 11L240 10z"/>
<path style="fill:#252629; stroke:none;" d="M240 11L241 50L242 50L244 13C255 18.7191 251 40.6045 251 51L253 51C254.261 41.0228 257.721 6.13808 240 11z"/>
<path style="fill:#9e9fa0; stroke:none;" d="M246 10L247 11L246 10z"/>
<path style="fill:#252629; stroke:none;" d="M269 10L272 53L274 53C274 39.3666 271.048 22.7829 278 11L269 10z"/>
<path style="fill:#626264; stroke:none;" d="M275 10L276 11L275 10z"/>
<path style="fill:#9e9fa0; stroke:none;" d="M276.667 10.3333L277.333 10.6667L276.667 10.3333M286 10L287 11L286 10z"/>
<path style="fill:#626264; stroke:none;" d="M311 10L312 11L311 10M353 10L354 11L353 10z"/>
<path style="fill:#252629; stroke:none;" d="M354 10C349.653 24.7071 353 44.6525 353 60L355 60C355 50.7599 354.294 41.2003 355.17 32C355.829 25.077 357.762 16.2808 354 10z"/>
<path style="fill:#9e9fa0; stroke:none;" d="M355 10L356 11L355 10z"/>
<path style="fill:#626264; stroke:none;" d="M381 10L382 11L381 10z"/>
<path style="fill:#9e9fa0; stroke:none;" d="M382.667 10.3333L383.333 10.6667L382.667 10.3333z"/>
<path style="fill:#626264; stroke:none;" d="M16.3333 11.6667L16.6667 12.3333L16.3333 11.6667M23.3333 11.6667L23.6667 12.3333L23.3333 11.6667z"/>
<path style="fill:#9e9fa0; stroke:none;" d="M34.3333 11.6667L34.6667 12.3333L34.3333 11.6667z"/>
<path style="fill:#626264; stroke:none;" d="M35.3333 11.6667L35.6667 12.3333L35.3333 11.6667z"/>
<path style="fill:#9e9fa0; stroke:none;" d="M59.3333 11.6667L59.6667 12.3333L59.3333 11.6667z"/>
<path style="fill:#626264; stroke:none;" d="M103.333 11.6667L103.667 12.3333L103.333 11.6667z"/>
<path style="fill:#9e9fa0; stroke:none;" d="M112.333 11.6667L112.667 12.3333L112.333 11.6667z"/>
<path style="fill:#626264; stroke:none;" d="M141 11L141 13L143 13L143 11L141 11z"/>
<path style="fill:#9e9fa0; stroke:none;" d="M143.333 11.6667L143.667 12.3333L143.333 11.6667M177.333 11.6667L177.667 12.3333L177.333 11.6667z"/>
<path style="fill:#626264; stroke:none;" d="M186.333 11.6667L186.667 12.3333L186.333 11.6667M218.333 11.6667L218.667 12.3333L218.333 11.6667z"/>
<path style="fill:#9e9fa0; stroke:none;" d="M249.333 11.6667L249.667 12.3333L249.333 11.6667M287.333 11.6667L287.667 12.3333L287.333 11.6667z"/>
<path style="fill:#626264; stroke:none;" d="M288.333 11.6667L288.667 12.3333L288.333 11.6667z"/>
<path style="fill:#9e9fa0; stroke:none;" d="M312.333 11.6667L312.667 12.3333L312.333 11.6667z"/>
<path style="fill:#252629; stroke:none;" d="M326 11L324 58L326 58L327 25C335.161 32.9007 329.572 51.1836 338 58L330.2 24L326 11z"/>
<path style="fill:#9e9fa0; stroke:none;" d="M328.333 11.6667L328.667 12.3333L328.333 11.6667z"/>
<path style="fill:#626264; stroke:none;" d="M355.333 11.6667L355.667 12.3333L355.333 11.6667M373.333 11.6667L373.667 12.3333L373.333 11.6667M385.333 11.6667L385.667 12.3333L385.333 11.6667z"/>
<path style="fill:#9e9fa0; stroke:none;" d="M15 13L16 14L15 13z"/>
<path style="fill:#626264; stroke:none;" d="M19 13L20 14L19 13z"/>
<path style="fill:#9e9fa0; stroke:none;" d="M20 13L21 14L20 13z"/>
<path style="fill:#626264; stroke:none;" d="M21 13L22 14L21 13z"/>
<path style="fill:#9e9fa0; stroke:none;" d="M24 13L25 14L24 13z"/>
<path style="fill:#626264; stroke:none;" d="M44 13L44 26L45 26L44 13M47 13L47 35L48 35L47 13z"/>
<path style="fill:#9e9fa0; stroke:none;" d="M78 13L78 20L79 20L78 13z"/>
<path style="fill:#626264; stroke:none;" d="M106 13L107 14L106 13z"/>
<path style="fill:#9e9fa0; stroke:none;" d="M107 13L108 14L107 13z"/>
<path style="fill:#626264; stroke:none;" d="M108 13L109 14L108 13M113 13L114 14L113 13z"/>
<path style="fill:#9e9fa0; stroke:none;" d="M132 13L132 21L133 21L132 13z"/>
<path style="fill:#626264; stroke:none;" d="M145 13L146 14L145 13M177 13L177 16L178 16L177 13z"/>
<path style="fill:#9e9fa0; stroke:none;" d="M188 13L189 14L188 13z"/>
<path style="fill:#626264; stroke:none;" d="M205 13L206 14L205 13M209 13L210 14L209 13z"/>
<path style="fill:#9e9fa0; stroke:none;" d="M210 13L211 14L210 13z"/>
<path style="fill:#fdfdfd; stroke:none;" d="M206 47L221 48C221 39.1995 222.19 29.47 219.311 21.0147C218.18 17.6912 215.694 12.3344 211.199 13.8503C204.262 16.1898 206.052 40.7032 206 47z"/>
<path style="fill:#9e9fa0; stroke:none;" d="M214 13L215 14L214 13z"/>
<path style="fill:#626264; stroke:none;" d="M215 13L216 14L215 13M219 13L220 14L219 13M240 13L241 14L240 13M244 13L245 14L244 13z"/>
<path style="fill:#9e9fa0; stroke:none;" d="M245 13L246 14L245 13z"/>
<path style="fill:#626264; stroke:none;" d="M246 13L247 14L246 13M250 13L251 14L250 13M297 13L297 26L298 26L297 13M300 13L300 35L301 35L300 13M325 13L326 14L325 13M328 13L329 14L328 13z"/>
<path style="fill:#9e9fa0; stroke:none;" d="M352 13L352 16L353 16L352 13M356 13L356 29L357 29L356 13M372 13L373 14L372 13z"/>
<path style="fill:#626264; stroke:none;" d="M376 13L374 18L375 18L376 13z"/>
<path style="fill:#9e9fa0; stroke:none;" d="M377 13L378 14L377 13z"/>
<path style="fill:#fdfdfd; stroke:none;" d="M373 61L389 62C389 49.6968 389.905 36.0627 387.331 24C386.478 20.0005 384.673 12.4929 379.093 13.5424C374.347 14.4353 374.108 21.2434 374.015 25C373.715 37.0223 373 48.9801 373 61z"/>
<path style="fill:#9e9fa0; stroke:none;" d="M382 13L383 14L382 13M18.3333 14.6667L18.6667 15.3333L18.3333 14.6667z"/>
<path style="fill:#626264; stroke:none;" d="M22 14L22 16L24 16L24 14L22 14z"/>
<path style="fill:#fdfdfd; stroke:none;" d="M106 14L106 46L113 45C113.172 36.684 118.092 15.7773 106 14z"/>
<path style="fill:#9e9fa0; stroke:none;" d="M110.333 14.6667L110.667 15.3333L110.333 14.6667z"/>
<path style="fill:#626264; stroke:none;" d="M111.333 14.6667L111.667 15.3333L111.333 14.6667M114.333 14.6667L114.667 15.3333L114.333 14.6667M135 14L135 37L136 37L135 14z"/>
<path style="fill:#9e9fa0; stroke:none;" d="M138 14L138 16L140 16L140 14L138 14M146.333 14.6667L146.667 15.3333L146.333 14.6667z"/>
<path style="fill:#626264; stroke:none;" d="M180.333 14.6667L180.667 15.3333L180.333 14.6667z"/>
<path style="fill:#9e9fa0; stroke:none;" d="M181 14L180 40L181 40L181 14z"/>
<path style="fill:#fdfdfd; stroke:none;" d="M182 14L181 45C195.063 44.8333 189.13 21.9828 184 14L182 14z"/>
<path style="fill:#9e9fa0; stroke:none;" d="M184.333 14.6667L184.667 15.3333L184.333 14.6667z"/>
<path style="fill:#626264; stroke:none;" d="M185.333 14.6667L185.667 15.3333L185.333 14.6667M189.333 14.6667L189.667 15.3333L189.333 14.6667z"/>
<path style="fill:#9e9fa0; stroke:none;" d="M208.333 14.6667L208.667 15.3333L208.333 14.6667M216.333 14.6667L216.667 15.3333L216.333 14.6667M220.333 14.6667L220.667 15.3333L220.333 14.6667M240 14L240 37L241 37L240 14z"/>
<path style="fill:#fdfdfd; stroke:none;" d="M244 14L243 51L250 51C250.544 38.3353 251.666 26.116 247 14L244 14z"/>
<path style="fill:#9e9fa0; stroke:none;" d="M247.333 14.6667L247.667 15.3333L247.333 14.6667M251.333 14.6667L251.667 15.3333L251.333 14.6667M270.333 14.6667L270.667 15.3333L270.333 14.6667M274 14L274 53L275 53C275 41.8276 278.311 24.274 274 14z"/>
<path style="fill:#626264; stroke:none;" d="M372.333 14.6667L372.667 15.3333L372.333 14.6667M384.333 14.6667L384.667 15.3333L384.333 14.6667M387.333 14.6667L387.667 15.3333L387.333 14.6667M14.3333 16.6667L14.6667 17.3333L14.3333 16.6667z"/>
<path style="fill:#9e9fa0; stroke:none;" d="M17.3333 16.6667L17.6667 17.3333L17.3333 16.6667z"/>
<path style="fill:#626264; stroke:none;" d="M105 16L105 44L106 44L105 16M112.333 16.6667L112.667 17.3333L112.333 16.6667z"/>
<path style="fill:#9e9fa0; stroke:none;" d="M115.333 16.6667L115.667 17.3333L115.333 16.6667M142.333 16.6667L142.667 17.3333L142.333 16.6667z"/>
<path style="fill:#626264; stroke:none;" d="M143.333 16.6667L143.667 17.3333L143.333 16.6667M145.333 16.6667L145.667 17.3333L145.333 16.6667z"/>
<path style="fill:#9e9fa0; stroke:none;" d="M177 16L177 45L178 45L177 16M186.333 16.6667L186.667 17.3333L186.333 16.6667M190.333 16.6667L190.667 17.3333L190.333 16.6667M204.333 16.6667L204.667 17.3333L204.333 16.6667M207.333 16.6667L207.667 17.3333L207.333 16.6667M243 16L243 21L244 21L243 16M248.333 16.6667L248.667 17.3333L248.333 16.6667z"/>
<path style="fill:#626264; stroke:none;" d="M251.333 16.6667L251.667 17.3333L251.333 16.6667M271 16L271 20L272 20L271 16z"/>
<path style="fill:#9e9fa0; stroke:none;" d="M324 16L324 37L325 37L324 16M329 16L329 20L330 20L329 16z"/>
<path style="fill:#626264; stroke:none;" d="M385.333 16.6667L385.667 17.3333L385.333 16.6667z"/>
<path style="fill:#9e9fa0; stroke:none;" d="M388.333 16.6667L388.667 17.3333L388.333 16.6667z"/>
<path style="fill:#626264; stroke:none;" d="M16.3333 18.6667L16.6667 19.3333L16.3333 18.6667z"/>
<path style="fill:#9e9fa0; stroke:none;" d="M112.333 18.6667L112.667 19.3333L112.333 18.6667z"/>
<path style="fill:#626264; stroke:none;" d="M115.333 18.6667L115.667 19.3333L115.333 18.6667z"/>
<path style="fill:#9e9fa0; stroke:none;" d="M187.333 18.6667L187.667 19.3333L187.333 18.6667z"/>
<path style="fill:#626264; stroke:none;" d="M190.333 18.6667L190.667 19.3333L190.333 18.6667M204 18L204 21L205 21L204 18z"/>
<path style="fill:#9e9fa0; stroke:none;" d="M218.333 18.6667L218.667 19.3333L218.333 18.6667M221.333 18.6667L221.667 19.3333L221.333 18.6667z"/>
<path style="fill:#626264; stroke:none;" d="M249.333 18.6667L249.667 19.3333L249.333 18.6667z"/>
<path style="fill:#9e9fa0; stroke:none;" d="M252.333 18.6667L252.667 19.3333L252.333 18.6667M371.333 18.6667L371.667 19.3333L371.333 18.6667M374.333 18.6667L374.667 19.3333L374.333 18.6667z"/>
<path style="fill:#626264; stroke:none;" d="M386.333 18.6667L386.667 19.3333L386.333 18.6667M388.333 18.6667L388.667 19.3333L388.333 18.6667z"/>
<path style="fill:#9e9fa0; stroke:none;" d="M13 20L14 21L13 20M16 20L17 21L16 20z"/>
<path style="fill:#626264; stroke:none;" d="M78 20L78 25L79 25L78 20M113 20L114 21L113 20z"/>
<path style="fill:#9e9fa0; stroke:none;" d="M116 20L116 25L117 25L116 20z"/>
<path style="fill:#626264; stroke:none;" d="M188 20L189 21L188 20z"/>
<path style="fill:#9e9fa0; stroke:none;" d="M191 20L191 23L192 23L191 20z"/>
<path style="fill:#626264; stroke:none;" d="M206 20L207 21L206 20z"/>
<path style="fill:#9e9fa0; stroke:none;" d="M219 20L220 21L219 20M249 20L250 21L249 20z"/>
<path style="fill:#626264; stroke:none;" d="M252 20L253 21L252 20z"/>
<path style="fill:#9e9fa0; stroke:none;" d="M271 20L271 53L272 53L271 20z"/>
<path style="fill:#626264; stroke:none;" d="M329 20L330 21L329 20M371 20L371 23L372 23L371 20z"/>
<path style="fill:#9e9fa0; stroke:none;" d="M386 20L387 21L386 20M389 20L390 21L389 20z"/>
<path style="fill:#626264; stroke:none;" d="M13 21L13 25L14 25L13 21M15.3333 21.6667L15.6667 22.3333L15.3333 21.6667z"/>
<path style="fill:#9e9fa0; stroke:none;" d="M113 21L113 25L114 25L113 21M188 21L188 25L189 25L188 21M203 21L203 26L204 26L203 21M206 21L206 40L207 40L206 21M222.333 21.6667L222.667 22.3333L222.333 21.6667M253 21L253 25L254 25L253 21M330 21L330 25L331 25L330 21z"/>
<path style="fill:#626264; stroke:none;" d="M373 21L373 29L374 29L373 21M387.333 21.6667L387.667 22.3333L387.333 21.6667M389.333 21.6667L389.667 22.3333L389.333 21.6667z"/>
<path style="fill:#9e9fa0; stroke:none;" d="M15 23L15 26L16 26L15 23z"/>
<path style="fill:#626264; stroke:none;" d="M81 23L81 25L83 25L83 23L81 23M84 23L84 29L85 29L84 23M191 23L191 26L192 26L191 23z"/>
<path style="fill:#9e9fa0; stroke:none;" d="M220 23L220 26L221 26L220 23z"/>
<path style="fill:#626264; stroke:none;" d="M222.333 23.6667L222.667 24.3333L222.333 23.6667M250 23L250 26L251 26L250 23z"/>
<path style="fill:#9e9fa0; stroke:none;" d="M387.333 23.6667L387.667 24.3333L387.333 23.6667M390 23L390 26L391 26L390 23M81 25L82 33L83 33L83 25L81 25z"/>
<path style="fill:#626264; stroke:none;" d="M116 25L116 38L117 38L116 25z"/>
<path style="fill:#9e9fa0; stroke:none;" d="M223 25L223 29L224 29L223 25z"/>
<path style="fill:#626264; stroke:none;" d="M242 25L242 50L243 50L242 25M253 25L253 29L254 29L253 25z"/>
<path style="fill:#9e9fa0; stroke:none;" d="M327 25L327 29L328 29L329 25L327 25z"/>
<path style="fill:#626264; stroke:none;" d="M330 25L331 26L330 25z"/>
<path style="fill:#9e9fa0; stroke:none;" d="M370 25L370 29L371 29L370 25z"/>
<path style="fill:#626264; stroke:none;" d="M388 25L388 29L389 29L388 25z"/>
<path style="fill:#9e9fa0; stroke:none;" d="M12 26L12 40L13 40L12 26M44 26L44 44L45 44L44 26z"/>
<path style="fill:#626264; stroke:none;" d="M189 26L189 40L190 40L189 26M203 26L203 29L204 29L203 26z"/>
<path style="fill:#9e9fa0; stroke:none;" d="M250 26L250 33L251 33L250 26M297 26L297 44L298 44L297 26z"/>
<path style="fill:#fdfdfd; stroke:none;" d="M328 26L327 58L335 58C334.256 48.5911 332.87 34.117 328 26z"/>
<path style="fill:#626264; stroke:none;" d="M329 26L329 29L330 29L329 26z"/>
<path style="fill:#9e9fa0; stroke:none;" d="M331 26L331 29L332 29L331 26z"/>
<path style="fill:#626264; stroke:none;" d="M390 26L390 29L391 29L390 26M14 29L14 37L15 37L14 29z"/>
<path style="fill:#9e9fa0; stroke:none;" d="M77 29L77 33L78 33L77 29z"/>
<path style="fill:#626264; stroke:none;" d="M80 29L80 33L81 33L80 29z"/>
<path style="fill:#fdfdfd; stroke:none;" d="M81 29L79 54L83 53L81 29z"/>
<path style="fill:#626264; stroke:none;" d="M103 29L103 46L104 46L103 29M114 29L114 35L115 35L114 29M133 29L133 43L134 43L133 29z"/>
<path style="fill:#9e9fa0; stroke:none;" d="M192 29L192 45L193 45L192 29z"/>
<path style="fill:#626264; stroke:none;" d="M221 29L221 35L222 35L221 29z"/>
<path style="fill:#9e9fa0; stroke:none;" d="M254 29L254 44L255 44L254 29z"/>
<path style="fill:#626264; stroke:none;" d="M326 29L326 48L327 48L326 29M331.333 29.6667L331.667 30.3333L331.333 29.6667M355 29L355 42L356 42L355 29M370 29L370 35L371 35L370 29z"/>
<path style="fill:#9e9fa0; stroke:none;" d="M373 29L373 45L374 45L373 29M388 29L388 40L389 40L388 29M391 29L391 33L392 33L391 29M85 31L85 38L86 38L85 31M202 31L202 44L203 44L202 31M224 31L224 37L225 37L224 31M330 31L330 35L331 35L330 31M332 31L332 35L333 35L332 31z"/>
<path style="fill:#626264; stroke:none;" d="M77 33L77 37L78 37L77 33z"/>
<path style="fill:#9e9fa0; stroke:none;" d="M80 33L80 37L81 37L80 33z"/>
<path style="fill:#626264; stroke:none;" d="M391 33L391 37L392 37L391 33z"/>
<path style="fill:#9e9fa0; stroke:none;" d="M221 35L221 49L222 49L221 35z"/>
<path style="fill:#626264; stroke:none;" d="M331.333 35.6667L331.667 36.3333L331.333 35.6667M83 37L83 42L84 42L83 37z"/>
<path style="fill:#9e9fa0; stroke:none;" d="M135 37L135 43L136 43L135 37z"/>
<path style="fill:#626264; stroke:none;" d="M224 37L224 40L225 40L224 37M240 37L240 50L241 50L240 37M324 37L324 48L325 48L324 37z"/>
<path style="fill:#9e9fa0; stroke:none;" d="M331 37L332 38L331 37M333 37L334 38L333 37M15 38L15 42L16 42L15 38M76 38L76 42L77 42L76 38z"/>
<path style="fill:#626264; stroke:none;" d="M79 38L79 42L80 42L79 38M85 38L85 45L86 45L85 38z"/>
<path style="fill:#9e9fa0; stroke:none;" d="M113 38L113 42L114 42L113 38M116 38L116 44L117 44L116 38z"/>
<path style="fill:#626264; stroke:none;" d="M333.333 38.6667L333.667 39.3333L333.333 38.6667z"/>
<path style="fill:#9e9fa0; stroke:none;" d="M369 38L369 60L370 60L369 38M392 38L392 45L393 45L392 38z"/>
<path style="fill:#626264; stroke:none;" d="M180 40L180 45L181 45L180 40M332.333 40.6667L332.667 41.3333L332.333 40.6667z"/>
<path style="fill:#9e9fa0; stroke:none;" d="M334 40L334 44L335 44L334 40z"/>
<path style="fill:#626264; stroke:none;" d="M13.3333 42.6667L13.6667 43.3333L13.3333 42.6667M15 42L15 45L16 45L15 42z"/>
<path style="fill:#9e9fa0; stroke:none;" d="M48 42L48 58L49 58L48 42z"/>
<path style="fill:#626264; stroke:none;" d="M76 42L76 45L77 45L76 42z"/>
<path style="fill:#9e9fa0; stroke:none;" d="M79 42L79 45L80 45L79 42M83 42L83 52L84 52L83 42z"/>
<path style="fill:#626264; stroke:none;" d="M113 42L113 45L114 45L113 42z"/>
<path style="fill:#9e9fa0; stroke:none;" d="M301 42L301 56L302 56L301 42M332.333 42.6667L332.667 43.3333L332.333 42.6667M355 42L355 60L356 60L355 42z"/>
<path style="fill:#33750b; stroke:none;" d="M1 122C12.6443 118.452 24.2915 99.5098 33 91.0147C51.2943 73.1685 73 57.4782 98 50.8843C135.097 41.0997 175.481 47.1994 213 50.8302C274.785 56.8093 337.921 65 400 65L400 62C338.287 62 275.405 53.9707 214 47.831C176.952 44.1266 136.751 38.2782 100 47.1304C68.9758 54.6032 45.157 73.843 23 96C16.0029 102.997 3.72112 112.305 1 122z"/>
<path style="fill:#9e9fa0; stroke:none;" d="M13 44L13 47L14 47L13 44M188.333 44.6667L188.667 45.3333L188.333 44.6667z"/>
<path style="fill:#626264; stroke:none;" d="M202 44L202 47L203 47L202 44M205 44L205 47L206 47L205 44z"/>
<path style="fill:#9e9fa0; stroke:none;" d="M225 44L225 49L226 49L225 44z"/>
<path style="fill:#626264; stroke:none;" d="M333 44L334 45L333 44z"/>
<path style="fill:#9e9fa0; stroke:none;" d="M16 45L16 48L17 48L16 45M250 45L250 50L251 50L250 45M333 45L333 48L334 48L333 45M335.333 45.6667L335.667 46.3333L335.333 45.6667M352 45L352 59L353 59L352 45z"/>
<path style="fill:#626264; stroke:none;" d="M392 45L392 62L393 62L392 45M133.333 46.6667L133.667 47.3333L133.333 46.6667z"/>
<path style="fill:#252629; stroke:none;" d="M134 46C130.673 59.9755 133 76.6598 133 91C133 101.108 131.25 113.029 133.228 122.941C134.545 129.537 144.545 127.682 147 123L137.09 119.682L135 102L136 58L137 58L137 61L143 63C144.543 55.7543 140.506 57.4718 136.6 53.4012C134.785 51.5102 134.982 48.3129 134 46z"/>
<path style="fill:#9e9fa0; stroke:none;" d="M135 46L135 54L136 54L135 46z"/>
<path style="fill:#626264; stroke:none;" d="M14 47L15 48L14 47z"/>
<path style="fill:#9e9fa0; stroke:none;" d="M75 47L75 50L76 50L75 47z"/>
<path style="fill:#626264; stroke:none;" d="M78 47L78 50L79 50L78 47M253 47L253 50L254 50L253 47M335 47L336 48L335 47M389 47L389 57L390 57L389 47z"/>
<path style="fill:#9e9fa0; stroke:none;" d="M14 48L14 52L15 52L14 48z"/>
<path style="fill:#626264; stroke:none;" d="M16.3333 48.6667L16.6667 49.3333L16.3333 48.6667M45 48L45 61L46 61L45 48z"/>
<path style="fill:#9e9fa0; stroke:none;" d="M86 48L86 51L87 51L86 48z"/>
<path style="fill:#fdfdfd; stroke:none;" d="M106 49L106 61C110.165 58.0744 111.569 52.8938 112 48L106 49z"/>
<path style="fill:#9e9fa0; stroke:none;" d="M112.333 48.6667L112.667 49.3333L112.333 48.6667z"/>
<path style="fill:#252629; stroke:none;" d="M113 48L107 63L106 63L106 49L104 49L105 127L106 127C110.619 107.543 97.7785 80.8279 108 63L111 74L112 74L113 48z"/>
<path style="fill:#626264; stroke:none;" d="M114.333 48.6667L114.667 49.3333L114.333 48.6667z"/>
<path style="fill:#9e9fa0; stroke:none;" d="M177 48L177 61L178 61L177 48z"/>
<path style="fill:#252629; stroke:none;" d="M178 48C178 73.9241 172.948 103.578 179 129L180 129C183.163 115.715 180 99.6891 180 86C180 75.9865 179.206 68.3942 189 63L192 49C187.22 50.3982 186.196 58.4868 186 63L180 63L180 48L178 48z"/>
<path style="fill:#626264; stroke:none;" d="M180.333 48.6667L180.667 49.3333L180.333 48.6667z"/>
<path style="fill:#fdfdfd; stroke:none;" d="M181 48L181 63C187.468 61.8777 187.882 53.5461 188 48L181 48z"/>
<path style="fill:#626264; stroke:none;" d="M188 48L188 52L189 52L188 48M298 48L298 55L299 55L298 48M334.333 48.6667L334.667 49.3333L334.333 48.6667z"/>
<path style="fill:#9e9fa0; stroke:none;" d="M336.333 48.6667L336.667 49.3333L336.333 48.6667z"/>
<path style="fill:#626264; stroke:none;" d="M372 48L372 57L373 57L372 48M103 49L103 57L104 57L103 49z"/>
<path style="fill:#9e9fa0; stroke:none;" d="M17.3333 50.6667L17.6667 51.3333L17.3333 50.6667z"/>
<path style="fill:#626264; stroke:none;" d="M75 50L75 54L76 54L75 50z"/>
<path style="fill:#9e9fa0; stroke:none;" d="M78 50L78 54L79 54L78 50z"/>
<path style="fill:#626264; stroke:none;" d="M112.333 50.6667L112.667 51.3333L112.333 50.6667z"/>
<path style="fill:#9e9fa0; stroke:none;" d="M114.333 50.6667L114.667 51.3333L114.333 50.6667M180 50L180 63L181 63L180 50z"/>
<path style="fill:#626264; stroke:none;" d="M191 50L191 54L192 54L191 50M202 50L202 77L203 77L202 50z"/>
<path style="fill:#252629; stroke:none;" d="M203 50C203 74.6903 198.025 107.937 213 129L214 129L215 129C230.924 110.865 225 74.6281 225 52L222 52C222.776 70.0683 223.882 87.9596 221.424 106C220.862 110.119 220.152 123.746 213.128 122.168C207.604 120.928 207.199 109.324 206.579 105C203.987 86.8952 205 68.2572 205 50L203 50z"/>
<path style="fill:#9e9fa0; stroke:none;" d="M205 50L205 88L206 88C206 77.0894 209.211 60.036 205 50z"/>
<path style="fill:#fdfdfd; stroke:none;" d="M206 50L206 78C206 83.9746 205.645 90.0663 206.424 96C207.073 100.938 206.467 122.133 214 122.133C220.952 122.133 220.82 104.548 221.424 100C222.946 88.5527 222 76.5399 222 65C222 61.6717 223.175 55.3849 220.972 52.6034C218.666 49.6915 209.513 50.1508 206 50z"/>
<path style="fill:#626264; stroke:none;" d="M250 50L251 51L250 50z"/>
<path style="fill:#9e9fa0; stroke:none;" d="M253 50L254 51L253 50M334 50L334 54L335 54L334 50z"/>
<path style="fill:#626264; stroke:none;" d="M336.333 50.6667L336.667 51.3333L336.333 50.6667z"/>
<path style="fill:#9e9fa0; stroke:none;" d="M221 51L222 52L221 51z"/>
<path style="fill:#626264; stroke:none;" d="M15.3333 52.6667L15.6667 53.3333L15.3333 52.6667M17.3333 52.6667L17.6667 53.3333L17.3333 52.6667z"/>
<path style="fill:#9e9fa0; stroke:none;" d="M111.333 52.6667L111.667 53.3333L111.333 52.6667M225 52L225 95L226 95C226 82.7811 229.71 63.2256 225 52z"/>
<path style="fill:#626264; stroke:none;" d="M326 52L326 58L327 58L326 52z"/>
<path style="fill:#9e9fa0; stroke:none;" d="M337 52L337 55L338 55L337 52z"/>
<path style="fill:#626264; stroke:none;" d="M240 53L241 54L240 53z"/>
<path style="fill:#252629; stroke:none;" d="M241 53L240.921 81L240 127C258.147 122.461 255.794 91.1833 253.561 77C252.923 72.9512 250.75 69.1444 250.259 65.1698C249.825 61.6535 251.949 57.3047 253 54C243.412 57.4346 246.711 66.4784 241 53z"/>
<path style="fill:#626264; stroke:none;" d="M242 53L242 61L243 61L242 53z"/>
<path style="fill:#9e9fa0; stroke:none;" d="M15 54L16 55L15 54M18 54L19 55L18 54M86 54L87 55L86 54z"/>
<path style="fill:#626264; stroke:none;" d="M111 54L112 55L111 54z"/>
<path style="fill:#9e9fa0; stroke:none;" d="M113 54L114 55L113 54M187 54L188 55L187 54M191 54L192 55L191 54z"/>
<path style="fill:#fdfdfd; stroke:none;" d="M243 54L243 63C247.575 61.7079 248.389 58.4088 249 54L243 54z"/>
<path style="fill:#9e9fa0; stroke:none;" d="M249 54L250 55L249 54z"/>
<path style="fill:#626264; stroke:none;" d="M335 54L336 55L335 54M16.3333 55.6667L16.6667 56.3333L16.3333 55.6667M18.3333 55.6667L18.6667 56.3333L18.3333 55.6667z"/>
<path style="fill:#9e9fa0; stroke:none;" d="M74 55L75 56L74 55z"/>
<path style="fill:#626264; stroke:none;" d="M84 55L84 61L85 61L84 55z"/>
<path style="fill:#252629; stroke:none;" d="M85 55L87 96C83.5975 95.9996 78.276 96.8739 75.6034 94.2577C69.6886 88.4677 76.4064 66.5215 77 59L75 59L68 125C73.5444 120.779 72.4765 105.633 73 99L87 99L89 127L91 127L87.2855 75L85 55z"/>
<path style="fill:#626264; stroke:none;" d="M86 55L86 63L87 63L86 55z"/>
<path style="fill:#9e9fa0; stroke:none;" d="M110.333 55.6667L110.667 56.3333L110.333 55.6667z"/>
<path style="fill:#626264; stroke:none;" d="M142.333 55.6667L142.667 56.3333L142.333 55.6667z"/>
<path style="fill:#9e9fa0; stroke:none;" d="M143.333 55.6667L143.667 56.3333L143.333 55.6667z"/>
<path style="fill:#626264; stroke:none;" d="M187.333 55.6667L187.667 56.3333L187.333 55.6667M249.333 55.6667L249.667 56.3333L249.333 55.6667M252.333 55.6667L252.667 56.3333L252.333 55.6667z"/>
<path style="fill:#9e9fa0; stroke:none;" d="M335 55L335 58L336 58L335 55z"/>
<path style="fill:#fdfdfd; stroke:none;" d="M74 95L86 96L84 56C73.5772 58.1733 74.1875 85.9141 74 95z"/>
<path style="fill:#9e9fa0; stroke:none;" d="M271.333 56.6667L271.667 57.3333L271.333 56.6667z"/>
<path style="fill:#252629; stroke:none;" d="M272 56L272 120L269 120L269 125L273 127L274 127L275 127L278 125L278 120C272.328 116.687 274 108.774 274 103L274 56L272 56z"/>
<path style="fill:#9e9fa0; stroke:none;" d="M274 56L274 61L275 61L274 56M16 57L17 58L16 57M19 57L20 58L19 57M103 57L103 86L104 86L103 57M109 57L110 58L109 57M112 57L113 58L112 57M132 57L132 105L133 105C133 91.4735 137.209 69.4143 132 57M144 57L144 61L145 61L144 57M186 57L187 58L186 57M190 57L191 58L190 57z"/>
<path style="fill:#626264; stroke:none;" d="M222 57L222 66L223 66L222 57z"/>
<path style="fill:#9e9fa0; stroke:none;" d="M248 57L249 58L248 57M252 57L253 58L252 57M338 57L339 58L338 57M372 57L372 61L373 61L372 57M389 57L389 62L390 62L389 57z"/>
<path style="fill:#626264; stroke:none;" d="M17 58L17 61L18 61L17 58M48 58L48 69L49 69L48 58z"/>
<path style="fill:#9e9fa0; stroke:none;" d="M77 58L77 63L78 63L77 58M108 58L108 61L109 61L108 58z"/>
<path style="fill:#626264; stroke:none;" d="M136 58L136 61L137 61L136 58M189 58L189 61L190 61L189 58M251 58L251 61L252 61L251 58M271 58L271 93L272 93L271 58M298 58L298 61L299 61L298 58z"/>
<path style="fill:#252629; stroke:none;" d="M299 58L300 123C304.421 120.134 303.286 112.786 302.83 108C301.593 94.9939 307.008 68.5703 299 58z"/>
<path style="fill:#626264; stroke:none;" d="M338 58L339 59L338 58M301 59L301 69L302 69L301 59M74 60L74 63L75 63L74 60z"/>
<path style="fill:#252629; stroke:none;" d="M324 60C324.431 80.8605 321.182 106.764 326 127L327 127C328.303 111.39 326.051 95.5726 326.001 80C325.979 73.2983 328.48 65.6929 324 60z"/>
<path style="fill:#9e9fa0; stroke:none;" d="M17.3333 61.6667L17.6667 62.3333L17.3333 61.6667z"/>
<path style="fill:#626264; stroke:none;" d="M20.3333 61.6667L20.6667 62.3333L20.3333 61.6667z"/>
<path style="fill:#9e9fa0; stroke:none;" d="M45 61L45 76L46 76L45 61M84 61L84 69L85 69L84 61z"/>
<path style="fill:#626264; stroke:none;" d="M106.333 61.6667L106.667 62.3333L106.333 61.6667z"/>
<path style="fill:#9e9fa0; stroke:none;" d="M111 61L111 66L112 66L111 61M135.333 61.6667L135.667 62.3333L135.333 61.6667M140.333 61.6667L140.667 62.3333L140.333 61.6667M143.333 61.6667L143.667 62.3333L143.333 61.6667z"/>
<path style="fill:#626264; stroke:none;" d="M177.333 61.6667L177.667 62.3333L177.333 61.6667M185.333 61.6667L185.667 62.3333L185.333 61.6667z"/>
<path style="fill:#9e9fa0; stroke:none;" d="M189.333 61.6667L189.667 62.3333L189.333 61.6667M246.333 61.6667L246.667 62.3333L246.333 61.6667M298 61L298 77L299 77L298 61z"/>
<path style="fill:#626264; stroke:none;" d="M326 61L326 66L327 66L326 61z"/>
<path style="fill:#9e9fa0; stroke:none;" d="M336.333 61.6667L336.667 62.3333L336.333 61.6667z"/>
<path style="fill:#252629; stroke:none;" d="M337 61L349 125L352 125L354 81L354 62L353 62L351 117L350 117L342.399 76L337 61z"/>
<path style="fill:#9e9fa0; stroke:none;" d="M339 62L340 63L339 62z"/>
<path style="fill:#fdfdfd; stroke:none;" d="M340 62L349 112L351 112L352 62L340 62z"/>
<path style="fill:#9e9fa0; stroke:none;" d="M352 62L352 72L353 72L352 62M18 63L18 66L19 66L18 63z"/>
<path style="fill:#626264; stroke:none;" d="M21 63L21 66L22 66L21 63z"/>
<path style="fill:#9e9fa0; stroke:none;" d="M73 63L73 69L74 69L73 63z"/>
<path style="fill:#626264; stroke:none;" d="M76 63L76 66L77 66L76 63z"/>
<path style="fill:#9e9fa0; stroke:none;" d="M87 63L87 71L88 71L87 63z"/>
<path style="fill:#626264; stroke:none;" d="M107 63L107 66L109 66L109 63L107 63M135 63L135 96L136 96L135 63z"/>
<path style="fill:#9e9fa0; stroke:none;" d="M176 63L176 67L177 67L176 63z"/>
<path style="fill:#626264; stroke:none;" d="M186 63L186 66L187 66L186 63M249 63L249 66L250 66L249 63M337 63L337 66L338 66L337 63z"/>
<path style="fill:#9e9fa0; stroke:none;" d="M369 63L369 82L370 82L369 63z"/>
<path style="fill:#252629; stroke:none;" d="M370 64C370 80.7244 370.13 97.5356 373.449 114C374.171 117.584 376.424 128.93 381.856 128.208C387.025 127.52 388.665 117.913 389.626 114C393.505 98.2016 392 81.1425 392 65L390 65C390 79.7363 390.653 94.4195 388.246 109C387.631 112.724 386.872 121.388 381.938 122.079C376.649 122.819 375.091 112.519 374.464 109C371.838 94.2787 372 78.905 372 64L370 64z"/>
<path style="fill:#9e9fa0; stroke:none;" d="M372 64L372 72L373 72L372 64z"/>
<path style="fill:#fdfdfd; stroke:none;" d="M373 64C373 79.1222 373.319 93.9765 375.09 109C375.449 112.049 377.29 122.81 381.891 122.079C386.361 121.369 387.346 111.443 387.866 108C390.074 93.3682 389.302 78.6499 389 64L373 64z"/>
<path style="fill:#9e9fa0; stroke:none;" d="M389 65L389 71L390 71L389 65z"/>
<path style="fill:#626264; stroke:none;" d="M392 65L392 91L393 91L392 65z"/>
<path style="fill:#9e9fa0; stroke:none;" d="M19 66L20 67L19 66M22 66L23 67L22 66M76 66L76 71L77 71L76 66z"/>
<path style="fill:#626264; stroke:none;" d="M105 66L105 86L106 86L105 66z"/>
<path style="fill:#9e9fa0; stroke:none;" d="M109 66L110 67L109 66z"/>
<path style="fill:#626264; stroke:none;" d="M111 66L111 69L112 69L111 66z"/>
<path style="fill:#9e9fa0; stroke:none;" d="M185 66L186 67L185 66M222 66L222 88L223 88L222 66M250 66L251 67L250 66z"/>
<path style="fill:#626264; stroke:none;" d="M324 66L324 88L325 88L324 66z"/>
<path style="fill:#9e9fa0; stroke:none;" d="M337 66L338 67L337 66M340 66L341 67L340 66z"/>
<path style="fill:#626264; stroke:none;" d="M22.3333 67.6667L22.6667 68.3333L22.3333 67.6667M177 67L177 89L178 89L177 67M182.333 67.6667L182.667 68.3333L182.333 67.6667z"/>
<path style="fill:#9e9fa0; stroke:none;" d="M183.333 67.6667L183.667 68.3333L183.333 67.6667z"/>
<path style="fill:#fdfdfd; stroke:none;" d="M243 67L243 120C256.006 113.579 255.74 73.4275 243 67z"/>
<path style="fill:#9e9fa0; stroke:none;" d="M245.333 67.6667L245.667 68.3333L245.333 67.6667z"/>
<path style="fill:#626264; stroke:none;" d="M246.333 67.6667L246.667 68.3333L246.333 67.6667z"/>
<path style="fill:#9e9fa0; stroke:none;" d="M251.333 67.6667L251.667 68.3333L251.333 67.6667z"/>
<path style="fill:#626264; stroke:none;" d="M340.333 67.6667L340.667 68.3333L340.333 67.6667z"/>
<path style="fill:#9e9fa0; stroke:none;" d="M20.3333 69.6667L20.6667 70.3333L20.3333 69.6667M23.3333 69.6667L23.6667 70.3333L23.3333 69.6667z"/>
<path style="fill:#626264; stroke:none;" d="M73 69L73 72L74 72L73 69M110.333 69.6667L110.667 70.3333L110.333 69.6667z"/>
<path style="fill:#9e9fa0; stroke:none;" d="M180 69L180 103L181 103L180 69z"/>
<path style="fill:#626264; stroke:none;" d="M242 69L242 82L243 82L242 69M247.333 69.6667L247.667 70.3333L247.333 69.6667z"/>
<path style="fill:#9e9fa0; stroke:none;" d="M327.333 69.6667L327.667 70.3333L327.333 69.6667z"/>
<path style="fill:#626264; stroke:none;" d="M338.333 69.6667L338.667 70.3333L338.333 69.6667z"/>
<path style="fill:#9e9fa0; stroke:none;" d="M341.333 69.6667L341.667 70.3333L341.333 69.6667z"/>
<path style="fill:#626264; stroke:none;" d="M21 71L22 72L21 71M87 71L87 77L88 77L87 71z"/>
<path style="fill:#9e9fa0; stroke:none;" d="M110 71L110 74L111 74L110 71M112 71L113 72L112 71z"/>
<path style="fill:#626264; stroke:none;" d="M248 71L249 72L248 71z"/>
<path style="fill:#9e9fa0; stroke:none;" d="M252 71L253 72L252 71z"/>
<path style="fill:#626264; stroke:none;" d="M326 71L326 88L327 88L326 71z"/>
<path style="fill:#9e9fa0; stroke:none;" d="M338 71L338 74L339 74L338 71z"/>
<path style="fill:#626264; stroke:none;" d="M341 71L342 72L341 71M354 71L354 82L355 82L354 71z"/>
<path style="fill:#9e9fa0; stroke:none;" d="M21.3333 72.6667L21.6667 73.3333L21.3333 72.6667M24.3333 72.6667L24.6667 73.3333L24.3333 72.6667z"/>
<path style="fill:#626264; stroke:none;" d="M75.3333 72.6667L75.6667 73.3333L75.3333 72.6667M85 72L85 80L86 80L85 72M112 72L111 77L112 77L112 72M249.333 72.6667L249.667 73.3333L249.333 72.6667M352 72L352 85L353 85L352 72M372 72L372 88L373 88L372 72M24.3333 74.6667L24.6667 75.3333L24.3333 74.6667z"/>
<path style="fill:#9e9fa0; stroke:none;" d="M72 74L72 80L73 80L72 74M75 74L75 80L76 80L75 74M249.333 74.6667L249.667 75.3333L249.333 74.6667M253.333 74.6667L253.667 75.3333L253.333 74.6667M302 74L302 91L303 91L302 74z"/>
<path style="fill:#626264; stroke:none;" d="M339.333 74.6667L339.667 75.3333L339.333 74.6667z"/>
<path style="fill:#9e9fa0; stroke:none;" d="M342.333 74.6667L342.667 75.3333L342.333 74.6667M22 76L22 80L23 80L22 76M25 76L26 77L25 76M49 76L49 91L50 91L49 76z"/>
<path style="fill:#252629; stroke:none;" d="M112 76L112 80L113 80L112 76z"/>
<path style="fill:#626264; stroke:none;" d="M240 76L240 86L241 86L240 76M250 76L251 77L250 76M253 76L254 77L253 76z"/>
<path style="fill:#9e9fa0; stroke:none;" d="M274 76L274 95L275 95L274 76M339 76L339 80L340 80L339 76z"/>
<path style="fill:#626264; stroke:none;" d="M342 76L343 77L342 76M25 77L25 80L26 80L25 77z"/>
<path style="fill:#252629; stroke:none;" d="M48 77L46.9961 92L47 123C50.8027 120.535 50.0457 116.192 49.9961 112C49.8819 102.346 51.6735 85.7543 48 77z"/>
<path style="fill:#9e9fa0; stroke:none;" d="M111 77L111 80L112 80L111 77M113 77L113 80L114 80L113 77M202 77L202 89L203 89L202 77M250 77L250 80L251 80L250 77M343 77L343 80L344 80L343 77M23 80L23 85L24 85L23 80M26 80L26 86L27 86L26 80z"/>
<path style="fill:#626264; stroke:none;" d="M72.3333 80.6667L72.6667 81.3333L72.3333 80.6667M74 80L74 85L75 85L74 80z"/>
<path style="fill:#9e9fa0; stroke:none;" d="M85 80L85 91L86 91L85 80M88 80L88 86L89 86L88 80z"/>
<path style="fill:#626264; stroke:none;" d="M112 80L112 85L113 85L114 80L112 80M251 80L251 85L252 85L251 80z"/>
<path style="fill:#9e9fa0; stroke:none;" d="M254 80L254 86L255 86L254 80M340 80L340 85L341 85L340 80z"/>
<path style="fill:#626264; stroke:none;" d="M343.333 80.6667L343.667 81.3333L343.333 80.6667z"/>
<path style="fill:#252629; stroke:none;" d="M113 82L118 127L120 127C119.442 114.043 118.116 93.8595 113 82z"/>
<path style="fill:#9e9fa0; stroke:none;" d="M242 82L242 101L243 101L242 82M354 82L354 98L355 98L354 82M389 82L389 96L390 96L389 82z"/>
<path style="fill:#626264; stroke:none;" d="M24 85L24 88L25 88L24 85M46 85L46 99L47 99L46 85z"/>
<path style="fill:#9e9fa0; stroke:none;" d="M71 85L71 89L72 89L71 85M74 85L74 89L75 89L74 85M112 85L112 89L113 89L112 85M114 85L114 88L115 88L114 85M251 85L251 93L252 93L251 85z"/>
<path style="fill:#626264; stroke:none;" d="M299 85L299 99L300 99L299 85M341 85L342 86L341 85z"/>
<path style="fill:#9e9fa0; stroke:none;" d="M344 85L345 86L344 85z"/>
<path style="fill:#626264; stroke:none;" d="M26 86L26 89L27 89L26 86M88 86L88 91L89 91L88 86M254 86L254 105L255 105L254 86z"/>
<path style="fill:#9e9fa0; stroke:none;" d="M341.333 86.6667L341.667 87.3333L341.333 86.6667z"/>
<path style="fill:#626264; stroke:none;" d="M344 86L344 89L345 89L344 86z"/>
<path style="fill:#9e9fa0; stroke:none;" d="M24 88L24 95L25 95L24 88z"/>
<path style="fill:#626264; stroke:none;" d="M114 88L115 89L114 88M205 88L205 93L206 93L205 88M222 88L222 96L223 96L222 88z"/>
<path style="fill:#9e9fa0; stroke:none;" d="M324 88L324 112L325 112L324 88z"/>
<path style="fill:#626264; stroke:none;" d="M370 88L370 93L371 93L370 88M71 89L71 93L72 93L71 89M342.333 89.6667L342.667 90.3333L342.333 89.6667z"/>
<path style="fill:#9e9fa0; stroke:none;" d="M345 89L345 93L346 93L345 89M351 89L351 101L352 101L351 89z"/>
<path style="fill:#626264; stroke:none;" d="M49 91L49 106L50 106L49 91M113 91L113 95L114 95L113 91z"/>
<path style="fill:#9e9fa0; stroke:none;" d="M115 91L115 95L116 95L115 91M239 91L239 103L240 103L239 91z"/>
<path style="fill:#626264; stroke:none;" d="M302 91L302 106L303 106L302 91z"/>
<path style="fill:#9e9fa0; stroke:none;" d="M342.333 91.6667L342.667 92.3333L342.333 91.6667M373 91L373 98L374 98L373 91M392 91L392 99L393 99L392 91M89 93L89 99L90 99L89 93M106 93L106 108L107 108L106 93z"/>
<path style="fill:#626264; stroke:none;" d="M203 93L203 98L204 98L203 93z"/>
<path style="fill:#9e9fa0; stroke:none;" d="M271 93L271 120L272 120L271 93z"/>
<path style="fill:#626264; stroke:none;" d="M343.333 93.6667L343.667 94.3333L343.333 93.6667M345 93L345 96L346 96L345 93z"/>
<path style="fill:#9e9fa0; stroke:none;" d="M370 93L370 99L371 99L370 93M70 95L70 98L71 98L70 95z"/>
<path style="fill:#626264; stroke:none;" d="M76 95L77 96L76 95z"/>
<path style="fill:#9e9fa0; stroke:none;" d="M77 95L77 96L81 96L77 95z"/>
<path style="fill:#626264; stroke:none;" d="M86 95L87 96L86 95z"/>
<path style="fill:#9e9fa0; stroke:none;" d="M113 95L113 99L114 99L113 95z"/>
<path style="fill:#626264; stroke:none;" d="M115 95L116 96L115 95M274 95L274 118L275 118L274 95z"/>
<path style="fill:#9e9fa0; stroke:none;" d="M343 95L343 98L344 98L343 95M27 96L27 99L28 99L27 96z"/>
<path style="fill:#626264; stroke:none;" d="M104 96L104 114L105 114L104 96z"/>
<path style="fill:#9e9fa0; stroke:none;" d="M135 96L135 105L136 105L135 96M206 96L206 101L207 101L206 96z"/>
<path style="fill:#626264; stroke:none;" d="M224 96L224 101L225 101L224 96z"/>
<path style="fill:#9e9fa0; stroke:none;" d="M327 96L327 120L328 120L327 96z"/>
<path style="fill:#626264; stroke:none;" d="M389 96L389 101L390 101L389 96z"/>
<path style="fill:#252629; stroke:none;" d="M26 97C23.2052 106.368 26.2839 122.271 13 123C15.8867 128.52 20.2816 125.185 22.696 120.816C25.8271 115.149 28.4848 103.092 26 97z"/>
<path style="fill:#626264; stroke:none;" d="M70 98L70 101L71 101L70 98z"/>
<path style="fill:#9e9fa0; stroke:none;" d="M116 98L116 101L117 101L116 98M176 98L176 106L177 106L176 98M203 98L203 103L204 103L203 98z"/>
<path style="fill:#626264; stroke:none;" d="M344 98L345 99L344 98z"/>
<path style="fill:#9e9fa0; stroke:none;" d="M346 98L347 99L346 98z"/>
<path style="fill:#626264; stroke:none;" d="M373 98L373 101L374 101L373 98z"/>
<path style="fill:#9e9fa0; stroke:none;" d="M24 99L24 103L25 103L24 99M46 99L46 123L47 123L46 99M73.3333 99.6667L73.6667 100.333L73.3333 99.6667M86 99L86 103L87 103L86 99z"/>
<path style="fill:#626264; stroke:none;" d="M89 99L89 105L90 105L89 99M114 99L114 103L115 103L114 99z"/>
<path style="fill:#9e9fa0; stroke:none;" d="M221 99L221 103L222 103L221 99M299 99L299 123L300 123L299 99M344 99L344 103L345 103L344 99z"/>
<path style="fill:#626264; stroke:none;" d="M346 99L346 103L347 103L346 99M116.333 101.667L116.667 102.333L116.333 101.667M206 101L206 105L207 105L206 101z"/>
<path style="fill:#9e9fa0; stroke:none;" d="M224 101L224 106L225 106L224 101z"/>
<path style="fill:#626264; stroke:none;" d="M242 101L242 105L243 105L242 101z"/>
<path style="fill:#9e9fa0; stroke:none;" d="M251 101L251 106L252 106L251 101z"/>
<path style="fill:#626264; stroke:none;" d="M351 101L351 108L352 108L351 101M371 101L371 105L372 105L371 101M391 101L391 105L392 105L391 101M24 103L24 106L25 106L24 103M26 103L26 108L27 108L26 103z"/>
<path style="fill:#9e9fa0; stroke:none;" d="M69 103L69 108L70 108L69 103z"/>
<path style="fill:#626264; stroke:none;" d="M72 103L72 108L73 108L72 103z"/>
<path style="fill:#9e9fa0; stroke:none;" d="M114 103L114 108L115 108L114 103z"/>
<path style="fill:#626264; stroke:none;" d="M180 103L180 112L181 112L180 103M221 103L221 106L222 106L221 103M239 103L239 114L240 114L239 103M345.333 103.667L345.667 104.333L345.333 103.667z"/>
<path style="fill:#9e9fa0; stroke:none;" d="M347 103L347 106L348 106L347 103z"/>
<path style="fill:#626264; stroke:none;" d="M353 103L353 110L354 110L353 103z"/>
<path style="fill:#9e9fa0; stroke:none;" d="M374 103L374 108L375 108L374 103M388 103L388 106L389 106L388 103M117 105L117 108L118 108L117 105z"/>
<path style="fill:#626264; stroke:none;" d="M135 105L135 117L136 117L135 105M204 105L205 106L204 105z"/>
<path style="fill:#9e9fa0; stroke:none;" d="M242 105L242 120L243 120L242 105M254 105L254 108L255 108L254 105M345 105L346 106L345 105M371 105L371 108L372 108L371 105M391 105L391 108L392 108L391 105z"/>
<path style="fill:#626264; stroke:none;" d="M87 106L87 112L88 112L87 106z"/>
<path style="fill:#9e9fa0; stroke:none;" d="M204 106L204 110L205 110L204 106M207 106L207 110L208 110L207 106z"/>
<path style="fill:#626264; stroke:none;" d="M223 106L223 110L224 110L223 106M251.333 106.667L251.667 107.333L251.333 106.667M347.333 106.667L347.667 107.333L347.333 106.667M388.333 106.667L388.667 107.333L388.333 106.667z"/>
<path style="fill:#9e9fa0; stroke:none;" d="M23 108L23 112L24 112L23 108M26.3333 108.667L26.6667 109.333L26.3333 108.667z"/>
<path style="fill:#626264; stroke:none;" d="M69 108L69 112L70 112L69 108z"/>
<path style="fill:#9e9fa0; stroke:none;" d="M72 108L72 114L73 114L72 108M90 108L90 114L91 114L90 108z"/>
<path style="fill:#626264; stroke:none;" d="M106 108L106 118L107 118L106 108M115 108L115 112L116 112L115 108M117.333 108.667L117.667 109.333L117.333 108.667z"/>
<path style="fill:#9e9fa0; stroke:none;" d="M220.333 108.667L220.667 109.333L220.333 108.667M250.333 108.667L250.667 109.333L250.333 108.667z"/>
<path style="fill:#626264; stroke:none;" d="M346.333 108.667L346.667 109.333L346.333 108.667z"/>
<path style="fill:#9e9fa0; stroke:none;" d="M348.333 108.667L348.667 109.333L348.333 108.667z"/>
<path style="fill:#626264; stroke:none;" d="M372 108L372 112L373 112L372 108M374.333 108.667L374.667 109.333L374.333 108.667M207.333 110.667L207.667 111.333L207.333 110.667M220 110L220 114L221 114L220 110z"/>
<path style="fill:#9e9fa0; stroke:none;" d="M223 110L223 114L224 114L223 110z"/>
<path style="fill:#626264; stroke:none;" d="M250.333 110.667L250.667 111.333L250.333 110.667M253.333 110.667L253.667 111.333L253.333 110.667z"/>
<path style="fill:#9e9fa0; stroke:none;" d="M346 110L346 114L347 114L346 110z"/>
<path style="fill:#626264; stroke:none;" d="M348.333 110.667L348.667 111.333L348.333 110.667z"/>
<path style="fill:#9e9fa0; stroke:none;" d="M353 110L353 118L354 118L353 110M387.333 110.667L387.667 111.333L387.333 110.667z"/>
<path style="fill:#626264; stroke:none;" d="M390.333 110.667L390.667 111.333L390.333 110.667M23.3333 112.667L23.6667 113.333L23.3333 112.667M25.3333 112.667L25.6667 113.333L25.3333 112.667z"/>
<path style="fill:#9e9fa0; stroke:none;" d="M68.3333 112.667L68.6667 113.333L68.3333 112.667M87 112L87 118L88 118L87 112M115.333 112.667L115.667 113.333L115.333 112.667M118.333 112.667L118.667 113.333L118.333 112.667z"/>
<path style="fill:#626264; stroke:none;" d="M205.333 112.667L205.667 113.333L205.333 112.667z"/>
<path style="fill:#9e9fa0; stroke:none;" d="M249.333 112.667L249.667 113.333L249.333 112.667M253.333 112.667L253.667 113.333L253.333 112.667z"/>
<path style="fill:#626264; stroke:none;" d="M324 112L324 122L325 122L324 112z"/>
<path style="fill:#9e9fa0; stroke:none;" d="M349 112L349 114L351 114L351 112L349 112M372.333 112.667L372.667 113.333L372.333 112.667M375.333 112.667L375.667 113.333L375.333 112.667z"/>
<path style="fill:#626264; stroke:none;" d="M387.333 112.667L387.667 113.333L387.333 112.667z"/>
<path style="fill:#9e9fa0; stroke:none;" d="M390.333 112.667L390.667 113.333L390.333 112.667M22 114L22 117L23 117L22 114z"/>
<path style="fill:#626264; stroke:none;" d="M68 114L68 118L69 118L68 114M71 114L71 118L72 118L71 114M90 114L90 118L91 118L90 114z"/>
<path style="fill:#9e9fa0; stroke:none;" d="M104 114L104 125L105 125L104 114z"/>
<path style="fill:#626264; stroke:none;" d="M118 114L118 117L119 117L118 114z"/>
<path style="fill:#9e9fa0; stroke:none;" d="M132 114L132 117L133 117L132 114z"/>
<path style="fill:#626264; stroke:none;" d="M177 114L177 120L178 120L177 114M208 114L208 117L209 117L208 114M219 114L219 117L220 117L219 114z"/>
<path style="fill:#9e9fa0; stroke:none;" d="M222 114L222 117L223 117L222 114z"/>
<path style="fill:#626264; stroke:none;" d="M248 114L248 117L249 117L248 114z"/>
<path style="fill:#9e9fa0; stroke:none;" d="M252 114L252 117L253 117L252 114z"/>
<path style="fill:#626264; stroke:none;" d="M347 114L347 117L348 117L347 114M350 114L350 117L351 117L350 114M373 114L373 117L374 117L373 114z"/>
<path style="fill:#9e9fa0; stroke:none;" d="M376 114L376 117L377 117L376 114M386 114L386 117L387 117L386 114z"/>
<path style="fill:#626264; stroke:none;" d="M389 114L389 117L390 117L389 114z"/>
<path style="fill:#9e9fa0; stroke:none;" d="M24 117L25 118L24 117z"/>
<path style="fill:#626264; stroke:none;" d="M116 117L117 118L116 117M132 117L133 118L132 117M206 117L207 118L206 117z"/>
<path style="fill:#9e9fa0; stroke:none;" d="M209 117L210 118L209 117M218 117L219 118L218 117z"/>
<path style="fill:#626264; stroke:none;" d="M247 117L248 118L247 117M251 117L252 118L251 117z"/>
<path style="fill:#9e9fa0; stroke:none;" d="M347 117L347 122L348 122L347 117M373 117L374 118L373 117z"/>
<path style="fill:#626264; stroke:none;" d="M376 117L377 118L376 117M386 117L387 118L386 117z"/>
<path style="fill:#9e9fa0; stroke:none;" d="M389 117L390 118L389 117z"/>
<path style="fill:#626264; stroke:none;" d="M21.3333 118.667L21.6667 119.333L21.3333 118.667M23.3333 118.667L23.6667 119.333L23.3333 118.667z"/>
<path style="fill:#9e9fa0; stroke:none;" d="M50.3333 118.667L50.6667 119.333L50.3333 118.667M71.3333 118.667L71.6667 119.333L71.3333 118.667M116 118L116 122L117 122L116 118M119.333 118.667L119.667 119.333L119.333 118.667M132 118L132 125L133 125L132 118M136.333 118.667L136.667 119.333L136.333 118.667z"/>
<path style="fill:#626264; stroke:none;" d="M218.333 118.667L218.667 119.333L218.333 118.667z"/>
<path style="fill:#9e9fa0; stroke:none;" d="M221.333 118.667L221.667 119.333L221.333 118.667M245.333 118.667L245.667 119.333L245.333 118.667z"/>
<path style="fill:#626264; stroke:none;" d="M250.333 118.667L250.667 119.333L250.333 118.667z"/>
<path style="fill:#9e9fa0; stroke:none;" d="M275.333 118.667L275.667 119.333L275.333 118.667M303.333 118.667L303.667 119.333L303.333 118.667z"/>
<path style="fill:#626264; stroke:none;" d="M374.333 118.667L374.667 119.333L374.333 118.667z"/>
<path style="fill:#9e9fa0; stroke:none;" d="M377.333 118.667L377.667 119.333L377.333 118.667M385.333 118.667L385.667 119.333L385.333 118.667z"/>
<path style="fill:#626264; stroke:none;" d="M388.333 118.667L388.667 119.333L388.333 118.667M20.3333 120.667L20.6667 121.333L20.3333 120.667z"/>
<path style="fill:#9e9fa0; stroke:none;" d="M23.3333 120.667L23.6667 121.333L23.3333 120.667M67 120L67 123L68 123L67 120z"/>
<path style="fill:#626264; stroke:none;" d="M88 120L88 123L89 123L88 120M119.333 120.667L119.667 121.333L119.333 120.667z"/>
<path style="fill:#9e9fa0; stroke:none;" d="M137.333 120.667L137.667 121.333L137.333 120.667M177 120L177 125L178 125L177 120M181 120L181 127L182 127L181 120M207.333 120.667L207.667 121.333L207.333 120.667z"/>
<path style="fill:#626264; stroke:none;" d="M210.333 120.667L210.667 121.333L210.333 120.667M217.333 120.667L217.667 121.333L217.333 120.667M249.333 120.667L249.667 121.333L249.333 120.667M327.333 120.667L327.667 121.333L327.333 120.667z"/>
<path style="fill:#9e9fa0; stroke:none;" d="M374.333 120.667L374.667 121.333L374.333 120.667M378.333 120.667L378.667 121.333L378.333 120.667M384.333 120.667L384.667 121.333L384.333 120.667M388.333 120.667L388.667 121.333L388.333 120.667M12 122L12 125L13 125L12 122z"/>
<path style="fill:#626264; stroke:none;" d="M13 122L14 123L13 122z"/>
<path style="fill:#9e9fa0; stroke:none;" d="M14 122L15 123L14 122M18 122L19 123L18 122M22 122L23 123L22 122M49 122L50 123L49 122z"/>
<path style="fill:#626264; stroke:none;" d="M70 122L71 123L70 122z"/>
<path style="fill:#9e9fa0; stroke:none;" d="M91 122L91 127L92 127L91 122M107 122L107 125L108 125L107 122z"/>
<path style="fill:#626264; stroke:none;" d="M117 122L118 123L117 122z"/>
<path style="fill:#9e9fa0; stroke:none;" d="M120 122L121 123L120 122z"/>
<path style="fill:#626264; stroke:none;" d="M146 122L147 123L146 122M208 122L209 123L208 122M211 122L212 123L211 122z"/>
<path style="fill:#9e9fa0; stroke:none;" d="M212 122L213 123L212 122M215 122L216 123L215 122M220 122L221 123L220 122z"/>
<path style="fill:#626264; stroke:none;" d="M239 122L239 125L240 125L239 122M248 122L249 123L248 122z"/>
<path style="fill:#9e9fa0; stroke:none;" d="M302 122L303 123L302 122M324 122L324 125L325 125L324 122z"/>
<path style="fill:#626264; stroke:none;" d="M348 122L348 125L349 125L348 122M352 122L353 123L352 122z"/>
<path style="fill:#9e9fa0; stroke:none;" d="M375 122L376 123L375 122M379 122L380 123L379 122z"/>
<path style="fill:#626264; stroke:none;" d="M383 122L384 123L383 122M387 122L388 123L387 122M20.3333 123.667L20.6667 124.333L20.3333 123.667M67.3333 123.667L67.6667 124.333L67.3333 123.667z"/>
<path style="fill:#9e9fa0; stroke:none;" d="M70.3333 123.667L70.6667 124.333L70.3333 123.667M88 123L88 127L89 127L88 123M117.333 123.667L117.667 124.333L117.333 123.667z"/>
<path style="fill:#626264; stroke:none;" d="M120 123L119 129L120 123z"/>
<path style="fill:#9e9fa0; stroke:none;" d="M208.333 123.667L208.667 124.333L208.333 123.667M219.333 123.667L219.667 124.333L219.333 123.667z"/>
<path style="fill:#626264; stroke:none;" d="M246.333 123.667L246.667 124.333L246.333 123.667z"/>
<path style="fill:#9e9fa0; stroke:none;" d="M247.333 123.667L247.667 124.333L247.333 123.667z"/>
<path style="fill:#626264; stroke:none;" d="M327.333 123.667L327.667 124.333L327.333 123.667z"/>
<path style="fill:#9e9fa0; stroke:none;" d="M352.333 123.667L352.667 124.333L352.333 123.667z"/>
<path style="fill:#626264; stroke:none;" d="M376.333 123.667L376.667 124.333L376.333 123.667M386.333 123.667L386.667 124.333L386.333 123.667z"/>
<path style="fill:#9e9fa0; stroke:none;" d="M13.3333 125.667L13.6667 126.333L13.3333 125.667z"/>
<path style="fill:#626264; stroke:none;" d="M14.3333 125.667L14.6667 126.333L14.3333 125.667M18.3333 125.667L18.6667 126.333L18.3333 125.667z"/>
<path style="fill:#9e9fa0; stroke:none;" d="M19.3333 125.667L19.6667 126.333L19.3333 125.667z"/>
<path style="fill:#626264; stroke:none;" d="M68 125L68 127L70 127L70 125L68 125M106.333 125.667L106.667 126.333L106.333 125.667M133.333 125.667L133.667 126.333L133.333 125.667M145.333 125.667L145.667 126.333L145.333 125.667z"/>
<path style="fill:#9e9fa0; stroke:none;" d="M146.333 125.667L146.667 126.333L146.333 125.667z"/>
<path style="fill:#626264; stroke:none;" d="M210.333 125.667L210.667 126.333L210.333 125.667z"/>
<path style="fill:#9e9fa0; stroke:none;" d="M218.333 125.667L218.667 126.333L218.333 125.667M239.333 125.667L239.667 126.333L239.333 125.667z"/>
<path style="fill:#626264; stroke:none;" d="M243.333 125.667L243.667 126.333L243.333 125.667z"/>
<path style="fill:#9e9fa0; stroke:none;" d="M244.333 125.667L244.667 126.333L244.333 125.667M271.333 125.667L271.667 126.333L271.333 125.667z"/>
<path style="fill:#626264; stroke:none;" d="M272.333 125.667L272.667 126.333L272.333 125.667z"/>
<path style="fill:#9e9fa0; stroke:none;" d="M275.333 125.667L275.667 126.333L275.333 125.667z"/>
<path style="fill:#626264; stroke:none;" d="M325.333 125.667L325.667 126.333L325.333 125.667z"/>
<path style="fill:#9e9fa0; stroke:none;" d="M327.333 125.667L327.667 126.333L327.333 125.667z"/>
<path style="fill:#626264; stroke:none;" d="M349.333 125.667L349.667 126.333L349.333 125.667z"/>
<path style="fill:#9e9fa0; stroke:none;" d="M350.333 125.667L350.667 126.333L350.333 125.667z"/>
<path style="fill:#626264; stroke:none;" d="M377.333 125.667L377.667 126.333L377.333 125.667M385.333 125.667L385.667 126.333L385.333 125.667z"/>
<path style="fill:#9e9fa0; stroke:none;" d="M118.333 127.667L118.667 128.333L118.333 127.667M178.333 127.667L178.667 128.333L178.333 127.667z"/>
<path style="fill:#626264; stroke:none;" d="M180.333 127.667L180.667 128.333L180.333 127.667z"/>
<path style="fill:#9e9fa0; stroke:none;" d="M211.333 127.667L211.667 128.333L211.333 127.667z"/>
<path style="fill:#626264; stroke:none;" d="M212.333 127.667L212.667 128.333L212.333 127.667M215.333 127.667L215.667 128.333L215.333 127.667z"/>
<path style="fill:#9e9fa0; stroke:none;" d="M216.333 127.667L216.667 128.333L216.333 127.667z"/>
<path style="fill:#626264; stroke:none;" d="M379.333 127.667L379.667 128.333L379.333 127.667M383.333 127.667L383.667 128.333L383.333 127.667z"/>
<path style="fill:#9e9fa0; stroke:none;" d="M384.333 127.667L384.667 128.333L384.333 127.667z"/>
</svg>
